<?xml version="1.0" encoding="UTF-8"?>
<svg id="carplay" xmlns="http://www.w3.org/2000/svg" xmlns:xlink="http://www.w3.org/1999/xlink" viewBox="0 0 40.75 42.15">
  <g class="cls-1">
    <path class="cls-3" d="M16.98,21.07h0v-.02h0v-.03h0v-.03h0v-.03h0v-.03h0v-.03h0v-.03h0v-.03h0v-.03h0v-.03h0v-.03h0v-.03h0v-.03h0v-.03h0v-.03h0v-.03h0v-.03h0v-.03h0v-.03h0v-.03h0v-.03h0v-.03h0v-.03h0v-.03h0v-.03h0v-.03h0v-.03h0v-.03h0v-.03h0v-.03h0v-.03h0v-.03h0v-.03h0v-.03h0v-.03h0v-.03h0v-.03h0v-.03h0v-.03h0v-.03h0v-.03h0v-.03h0v-.03h0v-.03h0v-.03h0v-.03h0v-.03h0v-.03h0v-.03h0v-.03h0v-.03h0v-.03h0v-.03h0v-.03h0v-.03h0v-.03h0v-.03h0v-.03h0v-.03h0v-.03h0v-.03h0v-.03h0v-.03h0v-.03h0v-.03h0v-.03h0v-.03h0v-.03h0v-.03h0v-.03h0v-.03h0v-.03h0v-.03h0v-.03h0v-.03h0v-.03h0v-.03h0v-.03h0v-.03h0v-.03h0v-.03h0v-.03h0v-.03h0v-.03h0v-.03h0v-.03h0v-.03h0v-.03h0v-.03h0v-.03h0v-.03h0v-.03h0v-.03h0v-.03h0v-.03h0v-.03h0v-.03h0v-.03h0v-.03h0v-.03h0v-.03h0v-.03h0v-.03h0v-.03h0v-.03h0v-.03h0v-.03h0v-.03h0v-.03h0v-.03h0v-.03h0v-.03h0v-.03h0v-.03h0v-.03h0v-.03h0v-.03h0v-.03h0v-.03h0v-.03h0v-.03h0v-.03h0v-.03h0v-.03h0v-.03h0v-.03h0v-.03h0v-.03h0v-.03h0v-.03h0v-.03h0v-.03h0v-.03h0v-.03h0v-.03h0v-.03h0v-.03h0v-.03h0v-.03h0v-.03h0v-.03h0v-.03h0v-.03h0v-.03h0v-.03h0v-.03h0v-.03h0v-.03h0v-.03h0v-.03h0v-.03h0v-.03h0v-.03h0v-.03h0v-.03h0v-.03h0v-.03h0v-.03h0v-.03h0v-.03h0v-.03h0v-.03h0v-.03h0v-.03h0v-.03h0v-.03h0v-.03h0v-.03h0v-.03h0v-.03h0v-.03h0v-.03h0v-.03h0v-.03h0v-.03h0v-.03h0v-.03h0v-.03h0v-.03h0v-.03h0v-.03h0v-.03h0v-.03h0v-.03h0v-.03h0v-.03h0v-.03h0v-.03h0v-.03h0v-.03h0v-.03h0v-.03h0v-.03h0v-.03h0v-.03h0v-.03h0v-.03h0v-.03h0v-.03h0v-.03h0v-.03h0v-.03h0v-.03h0v-.03h0v-.03h0v-.03h0v-.03h0v-.03h0v-.03h0v-.03h0v-.03h0v-.03h0v-.03h0v-.03h0v-.03h0v-.03h0v-.03h0v-.03h0v-.03h0c4.21,2.12,8.41,4.25,12.62,6.38-.31.16-.62.31-.93.47-.32.16-.65.33-.98.49h0c-3.57,1.81-7.14,3.62-10.71,5.43,0-2.13,0-4.26,0-6.39ZM31.08,21.83s0,0,0,0c0,0,0,0,0,0ZM31.12,20.3s0,0,.01,0c0,0,0,0-.01,0Z" />
    <path class="cls-3" d="M19.2,21.2h0v-.02h0v-.02h0v-.02h0v-.02h0v-.02h0v-.02h0v-.02h0v-.02h0v-.02h0v-.02h0v-.02h0v-.02h0v-.02h0v-.02h0v-.02h0v-.02h0v-.02h0v-.02h0v-.02h0v-.02h0v-.02h0v-.02h0v-.02h0v-.02h0v-.02h0v-.02h0v-.02h0v-.02h0v-.02h0v-.02h0v-.02h0v-.02h0v-.02h0v-.02h0v-.02h0v-.02h0v-.02h0v-.02h0v-.02h0v-.02h0v-.02h0v-.02h0v-.02h0v-.02h0v-.02h0v-.02h0v-.02h0v-.02h0v-.02h0v-.02h0v-.02h0v-.02h0v-.02h0v-.02h0v-.02h0v-.02h0v-.02h0v-.02h0v-.02h0v-.02h0v-.02h0v-.02h0v-.02h0v-.02h0v-.02h0v-.02h0v-.02h0v-.02h0v-.02h0v-.02h0v-.02h0v-.02h0v-.02h0v-.02h0v-.02h0v-.02h0v-.02h0v-.02h0v-.02h0v-.02h0v-.02h0v-.02h0v-.02h0v-.02h0v-.02h0v-.02h0v-.02h0v-.02h0v-.02h0v-.02h0v-.02h0v-.02h0v-.02h0v-.02h0v-.02h0v-.02h0v-.02h0v-.02h0v-.02h0v-.02h0v-.02h0v-.02h0v-.02h0v-.02h0v-.02h0v-.02h0v-.02h0v-.02h0v-.02h0v-.02h0v-.02h0v-.02h0v-.02h0v-.02h0v-.02h0v-.02h0v-.02h0v-.02h0v-.02h0v-.02h0v-.02h0v-.02h0v-.02h0v-.02h0v-.02h0v-.02h0v-.02h0v-.02h0v-.02h0v-.02h0v-.02h0v-.02h0v-.02h0v-.02h0v-.02h0v-.02h0v-.02h0v-.02h0v-.02h0v-.02h0v-.02h0v-.02h0v-.02h0v-.02h0v-.02h0v-.02h0c1.51.76,3.02,1.52,4.53,2.29-1.51.77-3.02,1.53-4.53,2.3,0-.77,0-1.53,0-2.3ZM17.72,24.25s0,0,0,0c0,0,0,0,0,0ZM17.72,18.16s0,0,0,0c0,0,0,0,0,0Z" />
    <path class="cls-4" d="M39.25,29.3c-1.88,4.02-5.09,7.29-9.09,9.28-4,1.99-8.57,2.57-12.96,1.65-4.38-.91-8.32-3.27-11.18-6.69-2.85-3.42-4.45-7.69-4.53-12.12-.08-4.43,1.36-8.76,4.09-12.27,2.73-3.51,6.58-6.01,10.93-7.08s8.93-.64,13.01,1.2c4.07,1.84,7.39,5,9.42,8.95" />
  </g>
</svg>