<?xml version="1.0" encoding="UTF-8"?>
<svg id="general" xmlns="http://www.w3.org/2000/svg" xmlns:xlink="http://www.w3.org/1999/xlink" viewBox="0 0 34 35.5">
  <g id="general">
    <g class="general">
      <path id="general" class="cls-2" d="M7.61,14.09l-.16-.92-.89-.27c-.39-.12-.75-.26-1.08-.44-.3-.16-.6-.37-.89-.64l-.67-.61-.85.3-.99.35-.14-.24.8-.68.72-.61-.25-.92c-.1-.37-.15-.75-.15-1.15s.05-.77.15-1.15l.25-.92-.72-.61-.8-.68.14-.24.99.35.85.3.67-.61c.29-.27.59-.48.89-.64.33-.18.69-.32,1.08-.44l.89-.27.16-.92.17-.98h.27l.17.98.16.92.89.27c.39.12.75.26,1.08.44.3.16.6.37.89.64l.67.61.85-.3.99-.35.14.24-.8.68-.72.61.25.92c.1.37.15.75.15,1.15s-.05.77-.15,1.15l-.25.92.72.61.8.68-.14.24-.99-.35-.85-.3-.67.61c-.29.27-.59.48-.89.64-.33.18-.69.32-1.08.44l-.89.27-.16.92-.17.98h-.27l-.17-.98Z" />
      <path id="general_3" class="cls-3" d="M11.15,11.65c-.88.88-1.93,1.31-3.19,1.31s-2.31-.43-3.19-1.31c-.88-.88-1.31-1.93-1.31-3.19s.43-2.31,1.31-3.19c.88-.88,1.93-1.31,3.19-1.31s2.31.43,3.19,1.31c.88.88,1.31,1.93,1.31,3.19s-.43,2.31-1.31,3.19Z" />
      <path id="general_4" class="cls-2" d="M22.01,32.16l-.16-.92-.89-.27c-.58-.17-1.11-.39-1.61-.65-.47-.25-.92-.57-1.36-.97l-.67-.61-.85.3-1.83.65-.7-1.16,1.49-1.27.72-.61-.25-.92c-.15-.56-.23-1.14-.23-1.74s.08-1.18.23-1.74l.25-.92-.72-.61-1.49-1.27.7-1.16,1.83.65.85.3.67-.61c.44-.4.89-.72,1.36-.97.49-.26,1.03-.48,1.61-.65l.89-.27.16-.92.31-1.84h1.36l.31,1.84.16.92.89.27c.58.17,1.11.39,1.61.65.47.25.92.57,1.36.97l.67.61.85-.3,1.83-.65.7,1.16-1.49,1.27-.72.61.25.92c.15.56.23,1.14.23,1.74s-.08,1.18-.23,1.74l-.25.92.72.61,1.49,1.27-.7,1.16-1.83-.65-.85-.3-.67.61c-.44.4-.89.72-1.36.97-.49.26-1.03.48-1.61.65l-.89.27-.16.92-.31,1.84h-1.36l-.31-1.84Z" />
      <path id="general_5" class="cls-3" d="M27.6,29.1c-1.27,1.27-2.79,1.9-4.6,1.9s-3.33-.63-4.6-1.9c-1.27-1.27-1.9-2.79-1.9-4.6s.63-3.33,1.9-4.6c1.27-1.27,2.79-1.9,4.6-1.9s3.33.63,4.6,1.9c1.27,1.27,1.9,2.79,1.9,4.6s-.63,3.33-1.9,4.6Z" />
    </g>
  </g>
</svg>