<?xml version="1.0" encoding="UTF-8"?>
<svg id="settings" xmlns="http://www.w3.org/2000/svg" xmlns:xlink="http://www.w3.org/1999/xlink" viewBox="0 0 50.75 50.75">
  <g class="cls-2">
    <path class="cls-4" d="M46.94,23.91l-2.81-.49c-.4-.08-.64-.33-.72-.73-.08-.33-.08-.73-.16-1.06-.08-.41.08-.73.4-.98l2.48-1.38c.4-.16.56-.65.4-1.06l-.4-1.22c-.16-.41-.56-.65-1.04-.57l-2.81.57c-.4.08-.72-.08-.96-.41-.16-.33-.32-.57-.48-.9-.16-.33-.16-.73.08-1.06l1.84-2.19c.32-.33.32-.82,0-1.14l-.8-.98c-.24-.33-.72-.41-1.12-.16l-2.4,1.46c-.32.16-.72.16-1.04-.08-.24-.24-.56-.49-.8-.65-.32-.24-.4-.65-.24-.98l1.04-2.68c.16-.41,0-.9-.32-1.14l-1.12-.65c-.4-.24-.88-.08-1.12.24l-1.76,2.26c-.24.24-.56.41-.88.24,0,0-.56-.24-1.04-.41-.32-.08-.56-.49-.56-.82l.08-2.85c0-.41-.24-.82-.72-.9l-1.36-.24c-.4-.08-.88.16-.96.57l-.96,2.68c-.08.33-.48.57-.8.57h-1.12c-.4,0-.72-.24-.8-.57l-.96-2.68c-.16-.41-.56-.65-.96-.57l-1.28.24c-.4.08-.72.49-.72.9l.09,2.86c0,.41-.24.73-.56.82-.24.08-.8.33-1.04.41-.32.08-.64,0-.96-.33l-1.77-2.19c-.24-.33-.72-.49-1.12-.24l-1.12.65c-.4.24-.56.73-.32,1.14l1.04,2.68c.16.33,0,.73-.24.98-.24.24-.56.41-.8.65-.24.24-.72.33-1.04.08l-2.39-1.46c-.4-.24-.88-.16-1.13.17l-.8.98c-.24.33-.24.82,0,1.14l1.84,2.19c.24.24.24.73.08,1.06-.16.33-.32.57-.48.9-.16.33-.56.49-.96.41l-2.81-.57c-.4-.08-.88.16-1.04.57l-.4,1.22c-.16.41,0,.9.4,1.06l2.48,1.38c.32.16.48.57.4.98-.08.33-.16.65-.16,1.06-.08.41-.32.65-.72.73l-2.81.49c-.4.08-.72.41-.72.9v1.3c0,.41.32.82.72.9l2.81.49c.4.08.64.33.72.73.08.33.08.73.16,1.06.08.41-.08.73-.4.98l-2.48,1.38c-.4.16-.56.65-.4,1.06l.4,1.22c.16.41.56.65,1.04.57l2.81-.57c.4-.08.72.08.96.41.16.33.32.57.48.9s.16.73-.08,1.06l-1.84,2.19c-.32.33-.32.82,0,1.14l.8.98c.24.33.72.41,1.12.16l2.4-1.46c.32-.16.72-.16,1.04.08.24.24.56.49.8.65.32.24.4.65.24.98l-.88,2.52c-.16.41,0,.9.32,1.14l1.12.65c.4.24.88.08,1.12-.24l1.77-2.27c.24-.24.56-.41.88-.24.4.16.64.24,1.04.41.32.08.56.49.56.82l-.08,2.85c0,.41.24.82.72.9l1.28.24c.4.08.88-.16.96-.57l.96-2.68c.08-.33.48-.57.8-.57h1.12c.4,0,.72.24.8.57l.96,2.68c.16.41.56.65.96.57l1.28-.24c.4-.08.72-.49.72-.9l-.09-2.86c0-.41.24-.73.56-.82.48-.16.72-.24,1.04-.41.24-.08.64-.08.88.24l1.84,2.27c.24.33.72.49,1.12.24l1.12-.65c.4-.24.56-.73.32-1.14l-1.04-2.67c-.16-.33,0-.73.24-.98.24-.24.56-.41.8-.65.24-.24.72-.33,1.04-.08l2.4,1.46c.4.24.88.16,1.12-.16l.8-.98c.24-.33.24-.82,0-1.14l-1.84-2.19c-.24-.24-.24-.73-.08-1.06.16-.33.32-.57.48-.9.16-.33.56-.49.96-.41l2.81.57c.4.08.88-.16,1.04-.57l.4-1.22c.16-.41,0-.9-.4-1.06l-2.48-1.38c-.32-.16-.48-.57-.4-.98.08-.33.16-.65.16-1.06.08-.41.32-.65.72-.73l2.81-.49c.4-.08.72-.41.72-.9v-1.3c-.08-.33-.4-.74-.8-.74Z" />
  </g>
  <path class="cls-3" d="M42.65,25.51c0,9.47-7.68,17.15-17.15,17.15s-17.15-7.68-17.15-17.15,7.68-17.15,17.15-17.15,17.15,7.68,17.15,17.15Z" />
  <path class="cls-5" d="M17.5,11.52l8,14M25.5,25.52l-8,14M25.5,25.52h15.5" />
</svg>