<?xml version="1.0" encoding="UTF-8"?>
<svg xmlns="http://www.w3.org/2000/svg" version="1.1" viewBox="0 0 50.8 50.8" id="settings">

      <path d="M44.7,25.3v-2.1c0-.7.3-1.5,1.1-1.7l1.6-.3c.8-.2,1.3-1,1.1-1.8s-.6-2-1-3-1-1-1.8-.9l-2,.6c-.7.1-1.3-.1-1.7-.7-.7-1.1-1.5-2.1-2.2-3s-.6-1.3,0-1.9l1-1.3c.4-.7.4-1.6-.2-2s-1.7-1.2-2.6-1.8-1.5-.2-1.9.3l-1.2,1.6c-.4.6-1.1.7-1.8.4-1.1-.6-2.3-.9-3.7-1.1s-1.2-.8-1.2-1.5v-1.9c0-.8-.6-1.5-1.3-1.5h-3.1c-.8,0-1.3.7-1.3,1.5v1.9c0,.7-.4,1.3-1.2,1.5-1.3.2-2.6.7-3.7,1.2s-1.3,0-1.8-.4l-1.2-1.6c-.4-.6-1.3-.8-1.9-.3s-1.7,1.2-2.6,1.9-.7,1.5-.2,2l1.1,1.3c.4.6.4,1.3,0,1.9-.9,1-1.7,2.1-2.3,3.2-.7,1.1-1,.9-1.7.7l-2-.4c-.7-.1-1.5.2-1.7.9s-.7,2-.9,3,.3,1.6,1.1,1.8l1.6.3c.7.1,1.2.8,1.1,1.6s0,1.2,0,1.9v2.1c0,.8-.3,1.3-.9,1.6l-1.9.8c-.7.3-1,1-.9,1.8s.6,2,1,2.9,1.2,1.1,1.9.8l1.6-.7c.7-.3,1.5,0,1.8.7.7,1.1,1.5,2.2,2.3,3.2s.6,1.2.1,1.8l-1.1,1.7c-.4.7-.3,1.5.3,1.9s1.7,1.2,2.6,1.8,1.6.2,2-.4l.9-1.5c.4-.6,1.2-.9,1.9-.6,1.1.4,2.2.9,3.5,1.1s1.2.8,1.2,1.5v1.9c0,.8.6,1.5,1.3,1.5h3.1c.8,0,1.3-.7,1.3-1.5v-1.9c0-.7.4-1.3,1.2-1.5,1.7-.3,3.3-1,4.9-1.8h0l1.7,2.5c.4.7,1.3.9,2,.4s1.7-1.1,2.6-1.8.7-1.3.2-1.9l-1.1-1.7c-.3-.6-.3-1.3.1-1.8.9-.9,1.6-2,2.2-3s1.1-.9,1.9-.7l1.6.7c.8.3,1.7,0,1.9-.8s.7-1.9,1-2.9-.2-1.5-.9-1.8l-1.9-.8c-.6-.2-1-.9-.9-1.6s0-1.3,0-2v-.3ZM38.2,32.1c-.6,1-1.2,1.9-1.9,2.8h0c-1.3,1.5-2.9,2.7-4.7,3.6h0c-1.1.6-2.2.9-3.5,1.1-.9.2-1.9.3-2.9.3s-2,0-2.9-.3c-1.1-.2-2.2-.6-3.2-1.1-1.8-.8-3.5-2-4.7-3.5-.8-.9-1.5-1.9-2-2.9-.9-1.7-1.6-3.6-1.7-5.7v-1.2c0-.7,0-1.3.1-2,.2-2,1-3.9,2-5.6.6-.9,1.2-1.8,1.9-2.6,1.3-1.5,3-2.6,4.8-3.3.9-.3,1.9-.7,2.8-.9s1.9-.3,2.9-.3,2,0,2.9.3c1,.2,1.9.4,2.8.9,1.8.8,3.5,1.9,4.8,3.3.7.8,1.3,1.6,1.9,2.3,1,1.7,1.8,3.6,2,5.6,0,.7.2,1.5.2,2.2v1.2c-.1,2-.8,3.9-1.7,5.7Z"/>
</svg>